<svg width="1200" height="800" viewBox="0 0 1200 800" fill="none" xmlns="http://www.w3.org/2000/svg">
  <rect width="1200" height="800" rx="48" fill="#F7F5EF"/>
  <path d="M0 515C181 447 347 413 498 413C691 413 835 480 982 480C1055 480 1128 469 1200 446V800H0V515Z" fill="#F0D7A6"/>
  <path d="M0 250C175 207 326 186 455 186C645 186 773 245 920 245C1022 245 1115 219 1200 176V514C1118 541 1044 554 977 554C824 554 690 495 504 495C364 495 196 526 0 588V250Z" fill="#7BC6E1"/>
  <circle cx="214" cy="174" r="70" fill="#F7D77A"/>
</svg>
